<svg width="160" height="48" viewBox="0 0 160 48" fill="none" xmlns="http://www.w3.org/2000/svg">
<path d="M23.9734 1.49168C36.9723 1.49168 46.3485 11.8269 46.3485 24.0266C46.3485 36.3862 36.2797 46.5616 23.9734 46.5616C11.7203 46.5616 1.59822 36.4395 1.59822 24.0266C1.59822 11.5072 11.3474 1.49168 23.9734 1.49168ZM0 24.0266C0 37.2386 10.2819 48 23.9734 48C37.6648 48 47.9467 37.1321 47.9467 23.9734C47.9467 10.7614 37.6648 0 23.9734 0C10.2819 0 0 10.8146 0 24.0266ZM28.8746 30.4195C28.3951 30.4195 28.0222 30.7392 28.0222 31.3252V35.6404C28.0222 35.9068 27.8624 36.0133 27.6493 36.0133C27.4362 36.0133 27.2764 35.9068 27.2764 35.6404V28.3951C27.2764 27.8091 26.9034 27.5427 26.424 27.5427C25.9445 27.5427 25.5716 27.8091 25.5716 28.3951V34.6282C25.5716 34.8946 25.4118 35.0011 25.1987 35.0011C24.9856 35.0011 24.8258 34.8946 24.8258 34.6282V27.2764C24.8258 26.6903 24.4528 26.424 23.9734 26.424C23.4939 26.424 23.121 26.6371 23.121 27.2764V34.6282C23.121 34.8946 22.9612 35.0011 22.7481 35.0011C22.535 35.0011 22.3751 34.8946 22.3751 34.6282V28.3951C22.3751 27.8091 22.0022 27.5427 21.5228 27.5427C21.0433 27.5427 20.6704 27.8091 20.6704 28.3951V36.5461C20.6704 36.8124 20.5105 36.919 20.2975 36.919C20.0844 36.919 19.9245 36.8124 19.9245 36.5461V33.5627C19.9245 32.9767 19.5516 32.7103 19.0721 32.7103C18.5927 32.7103 18.2198 32.9767 18.2198 33.5627V39.7425C18.2198 42.8324 20.4573 45.0167 23.707 45.0167H24.2397C27.4362 45.0167 29.727 42.8857 29.727 39.7425V31.2719C29.727 30.7392 29.4073 30.4195 28.8746 30.4195ZM16.7281 29.5671C17.2608 29.5671 17.5805 29.2475 17.5805 28.768C17.5805 28.2886 17.2608 27.9689 16.7281 27.9689H12.3596C12.1465 27.9689 12.04 27.7558 12.04 27.596C12.04 27.3829 12.1465 27.2231 12.3596 27.2231H19.5516C20.1376 27.2231 20.404 26.9034 20.404 26.424C20.404 25.9445 20.1376 25.6249 19.5516 25.6249H13.3718C13.1054 25.6249 12.9989 25.465 12.9989 25.2519C12.9989 25.0388 13.1054 24.879 13.3718 24.879H20.7769C21.3097 24.879 21.6293 24.5594 21.6293 24.0799C21.6293 23.6004 21.3097 23.2808 20.7769 23.2808H13.3718C13.1054 23.2808 12.9989 23.121 12.9989 22.9079C12.9989 22.6948 13.1054 22.535 13.3718 22.535H19.5516C20.0844 22.535 20.404 22.2153 20.404 21.7358C20.404 21.2564 20.0844 20.9367 19.5516 20.9367H11.4539C11.1876 20.9367 11.081 20.7769 11.081 20.5638C11.081 20.3507 11.1876 20.1909 11.4539 20.1909H14.384C14.9168 20.1909 15.2364 19.8713 15.2364 19.3918C15.2364 18.9123 14.9168 18.5927 14.384 18.5927H8.20422C5.16759 18.5927 2.93008 20.6704 2.93008 23.9201V24.3996C2.93008 27.5427 5.11431 29.6204 8.20422 29.6204H16.7281V29.5671ZM19.0721 17.6337C19.5516 17.6337 19.9245 17.3141 19.9245 16.7281V12.4129C19.9245 12.1465 20.0844 12.04 20.2975 12.04C20.5105 12.04 20.6704 12.1465 20.6704 12.4129V19.6049C20.6704 20.1909 21.0433 20.4573 21.5228 20.4573C22.0022 20.4573 22.3751 20.1909 22.3751 19.6049V13.3718C22.3751 13.1054 22.535 12.9989 22.7481 12.9989C22.9612 12.9989 23.121 13.1054 23.121 13.3718V20.7769C23.121 21.3629 23.4939 21.6293 23.9734 21.6293C24.4528 21.6293 24.8258 21.4162 24.8258 20.7769V13.3718C24.8258 13.1054 24.9856 12.9989 25.1987 12.9989C25.4118 12.9989 25.5716 13.1054 25.5716 13.3718V19.6049C25.5716 20.1909 25.9445 20.4573 26.424 20.4573C26.9034 20.4573 27.2764 20.1909 27.2764 19.6049V11.4539C27.2764 11.1876 27.4362 11.081 27.6493 11.081C27.8624 11.081 28.0222 11.1876 28.0222 11.4539V14.4373C28.0222 15.0233 28.3951 15.2897 28.8746 15.2897C29.3541 15.2897 29.727 15.0233 29.727 14.4373V8.25749C29.727 5.16759 27.4895 2.98335 24.2397 2.98335H23.707C20.5105 2.98335 18.2198 5.11432 18.2198 8.25749V16.7281C18.2198 17.2608 18.5394 17.6337 19.0721 17.6337ZM31.2187 18.4861C30.6859 18.4861 30.3663 18.8058 30.3663 19.2852C30.3663 19.7647 30.6859 20.0844 31.2187 20.0844H35.5871C35.8002 20.0844 35.9068 20.2974 35.9068 20.4573C35.9068 20.6704 35.8002 20.8302 35.5871 20.8302H28.3951C27.8091 20.8302 27.5427 21.1498 27.5427 21.6293C27.5427 22.1088 27.8091 22.4284 28.3951 22.4284H34.5749C34.8413 22.4284 34.9478 22.5882 34.9478 22.8013C34.9478 23.0144 34.8413 23.1743 34.5749 23.1743H27.1698C26.6371 23.1743 26.3174 23.4939 26.3174 23.9734C26.3174 24.4528 26.6371 24.7725 27.1698 24.7725H34.5749C34.8413 24.7725 34.9478 24.9323 34.9478 25.1454C34.9478 25.3585 34.8413 25.5183 34.5749 25.5183H28.3951C27.8624 25.5183 27.5427 25.838 27.5427 26.3174C27.5427 26.7969 27.8624 27.1165 28.3951 27.1165H36.4928C36.7592 27.1165 36.8657 27.2764 36.8657 27.4895C36.8657 27.7026 36.7592 27.8624 36.4928 27.8624H33.5627C33.03 27.8624 32.7103 28.182 32.7103 28.6615C32.7103 29.141 33.03 29.4606 33.5627 29.4606H39.7425C42.7791 29.4606 45.0167 27.3829 45.0167 24.1332V23.6537C45.0167 20.5105 42.8324 18.4329 39.7425 18.4329H31.2187V18.4861Z" fill="#FF384B"/>
<path d="M78.3311 16.6217C78.4376 14.9702 78.5442 11.7737 78.5442 9.53619H84.724V20.4574H88.2933V6.44629H75.1346C75.0813 9.74929 75.1879 13.1056 75.0813 15.1832C74.8682 16.9946 74.229 17.2077 73.1102 17.2077H72.2578V20.5107H73.7495C76.8394 20.6172 78.118 19.2321 78.3311 16.6217Z" fill="#FF384B"/>
<path d="M66.8524 34.4681C67.7581 34.0951 68.4507 32.9231 68.4507 31.4847C68.4507 28.9808 66.7992 27.5957 63.2831 27.5957H54.333V41.6068H63.2831C66.7459 41.6068 68.5039 40.0618 68.5039 37.2383C68.5039 36.013 67.8646 34.7877 66.8524 34.4681ZM57.8491 30.5791H63.3896C64.5616 30.5791 64.9878 31.1651 64.9878 31.8576C64.9878 32.71 64.5616 33.2428 63.4429 33.2428H57.7958V30.5791H57.8491ZM63.4429 38.5702H57.7426V35.7466H63.4429C64.6149 35.7466 65.0944 36.2794 65.0944 37.0785C65.0944 37.8776 64.5616 38.5702 63.4429 38.5702Z" fill="#FF384B"/>
<path d="M106.033 15.6094C106.033 12.9457 104.382 11.1344 100.546 11.1344H95.5381V6.44629H91.9688V20.4574H100.706C104.488 20.4574 106.033 18.3797 106.033 15.6094ZM95.5381 17.4208V14.2243H100.386C101.771 14.2243 102.41 14.8103 102.41 15.716C102.41 16.7282 101.824 17.4208 100.439 17.4208H95.5381Z" fill="#FF384B"/>
<path d="M138.871 23.7596C138.871 26.0504 140.15 27.1692 143.985 27.1692C147.821 27.1692 149.153 25.9439 149.153 23.7596V23.3867H145.903C145.903 24.3989 145.317 24.7718 143.932 24.7718C142.654 24.7718 142.227 24.3457 142.227 23.3867H138.924V23.7596H138.871Z" fill="#FF384B"/>
<path d="M129.764 14.7566H137.382V20.4569H140.952V6.4458H137.382V11.6667H129.711V6.4458H126.142V20.4569H129.764V14.7566Z" fill="#FF384B"/>
<path d="M92.1249 27.5957L85.1992 41.6068H88.9284L90.4201 38.6234H98.2514L99.7431 41.6068H103.579L96.6532 27.5957H92.1249ZM91.8585 35.6401L94.3091 30.6856L96.7597 35.6401H91.8585Z" fill="#FF384B"/>
<path d="M139.802 36.9187V27.5957H136.339V41.6068H139.855L148.166 32.2838V41.6068H151.629V27.5957H148.22L139.802 36.9187Z" fill="#FF384B"/>
<path d="M59.992 6.4458L53.0664 20.4569H56.7956L58.2873 17.4735H66.0653L67.557 20.4569H71.3927L64.4671 6.4458H59.992ZM59.7257 14.5435L62.1763 9.58897L64.6269 14.5435H59.7257Z" fill="#FF384B"/>
<path d="M152.988 17.4203H150.857C148.407 17.4203 147.395 15.9287 147.395 13.5313C147.395 10.9209 148.354 9.58903 150.804 9.58903H152.935C155.173 9.58903 155.759 10.4414 156.025 11.8265H159.861C159.754 8.2039 157.996 6.39258 153.255 6.39258H150.431C145.637 6.39258 143.719 9.05629 143.719 13.5313C143.719 18.3793 145.583 20.6168 150.378 20.6168H153.255C157.943 20.6168 159.594 18.8055 159.861 15.2894H156.025C155.705 16.6212 155.119 17.4203 152.988 17.4203Z" fill="#FF384B"/>
<path d="M124.332 35.9065H132.856V33.0829H124.226V30.6323H133.122V27.5957H120.656V41.6068H133.282V38.5169H124.332V35.9065Z" fill="#FF384B"/>
<path d="M80.5857 27.5957H71.7422V41.6068H75.3115V36.9187H80.5324C84.1018 36.9187 85.9131 35.0008 85.9131 32.0707C85.9131 29.1406 84.1551 27.5957 80.5857 27.5957ZM80.2661 33.8288H75.3648V30.6323H80.2128C81.7577 30.6323 82.397 31.1651 82.397 32.1773C82.3437 33.1895 81.7045 33.8288 80.2661 33.8288Z" fill="#FF384B"/>
<path d="M113.364 33.4026H109.155C107.131 33.4026 106.491 32.8698 106.491 30.7922V27.5957H102.922V31.6445C102.922 35.3737 104.52 36.5458 108.409 36.5458H113.47V41.6068H117.04V27.5957H113.417V33.4026H113.364Z" fill="#FF384B"/>
<path d="M122.462 20.4574V6.44629H113.618C109.836 6.44629 107.971 8.31088 107.971 11.241C107.971 13.7448 109.197 14.9169 110.635 15.3963L107.918 20.4574H111.86L114.204 15.8758H118.786V20.4574H122.462ZM113.831 12.8392C112.446 12.8392 111.647 12.3064 111.647 11.1877C111.647 10.1222 112.393 9.53619 113.831 9.53619H118.892V12.8392H113.831Z" fill="#FF384B"/>
</svg>
