<svg xmlns="http://www.w3.org/2000/svg">
    <symbol id="link"  fill="none">
        <path d="M7 9.94799L10 8.24963L13 6.55127M7 13.3447L10 15.0431L13 16.7414" stroke="#FF384B" stroke-width="2"/>
        <path d="M7 11.6461C7 13.2098 5.6853 14.5281 4 14.5281C2.3147 14.5281 1 13.2098 1 11.6461C1 10.0825 2.3147 8.76416 4 8.76416C5.6853 8.76416 7 10.0825 7 11.6461Z" stroke="#FF384B" stroke-width="2"/>
        <path d="M19 4.85267C19 6.41631 17.6853 7.73464 16 7.73464C14.3147 7.73464 13 6.41631 13 4.85267C13 3.28903 14.3147 1.9707 16 1.9707C17.6853 1.9707 19 3.28903 19 4.85267Z" stroke="#FF384B" stroke-width="2"/>
        <path d="M19 18.4396C19 20.0032 17.6853 21.3215 16 21.3215C14.3147 21.3215 13 20.0032 13 18.4396C13 16.8759 14.3147 15.5576 16 15.5576C17.6853 15.5576 19 16.8759 19 18.4396Z" stroke="#FF384B" stroke-width="2"/>
    </symbol>

    <symbol id="rouble" fill="none">
        <rect x="1" y="1" width="22" height="22" rx="11" stroke="#FF384B" stroke-width="2"/>
        <rect x="9" y="6" width="2" height="12" fill="#FF384B"/>
        <path d="M10 7H13.5C14.8807 7 16 8.11929 16 9.5C16 10.8807 14.8807 12 13.5 12H10V7Z" stroke="#FF384B" stroke-width="2"/>
        <rect x="7" y="14" width="9" height="2" fill="#FF384B"/>
    </symbol>

    <symbol id="label" >
            <path d="M23.9734 1.49168C36.9723 1.49168 46.3485 11.8269 46.3485 24.0266C46.3485 36.3862 36.2797 46.5616 23.9734 46.5616C11.7203 46.5616 1.59822 36.4395 1.59822 24.0266C1.59822 11.5072 11.3474 1.49168 23.9734 1.49168ZM0 24.0266C0 37.2386 10.2819 48 23.9734 48C37.6648 48 47.9467 37.1321 47.9467 23.9734C47.9467 10.7614 37.6648 0 23.9734 0C10.2819 0 0 10.8146 0 24.0266ZM28.8746 30.4195C28.3951 30.4195 28.0222 30.7392 28.0222 31.3252V35.6404C28.0222 35.9068 27.8624 36.0133 27.6493 36.0133C27.4362 36.0133 27.2764 35.9068 27.2764 35.6404V28.3951C27.2764 27.8091 26.9034 27.5427 26.424 27.5427C25.9445 27.5427 25.5716 27.8091 25.5716 28.3951V34.6282C25.5716 34.8946 25.4118 35.0011 25.1987 35.0011C24.9856 35.0011 24.8258 34.8946 24.8258 34.6282V27.2764C24.8258 26.6903 24.4528 26.424 23.9734 26.424C23.4939 26.424 23.121 26.6371 23.121 27.2764V34.6282C23.121 34.8946 22.9612 35.0011 22.7481 35.0011C22.535 35.0011 22.3751 34.8946 22.3751 34.6282V28.3951C22.3751 27.8091 22.0022 27.5427 21.5228 27.5427C21.0433 27.5427 20.6704 27.8091 20.6704 28.3951V36.5461C20.6704 36.8124 20.5105 36.919 20.2975 36.919C20.0844 36.919 19.9245 36.8124 19.9245 36.5461V33.5627C19.9245 32.9767 19.5516 32.7103 19.0721 32.7103C18.5927 32.7103 18.2198 32.9767 18.2198 33.5627V39.7425C18.2198 42.8324 20.4573 45.0167 23.707 45.0167H24.2397C27.4362 45.0167 29.727 42.8857 29.727 39.7425V31.2719C29.727 30.7392 29.4073 30.4195 28.8746 30.4195ZM16.7281 29.5671C17.2608 29.5671 17.5805 29.2475 17.5805 28.768C17.5805 28.2886 17.2608 27.9689 16.7281 27.9689H12.3596C12.1465 27.9689 12.04 27.7558 12.04 27.596C12.04 27.3829 12.1465 27.2231 12.3596 27.2231H19.5516C20.1376 27.2231 20.404 26.9034 20.404 26.424C20.404 25.9445 20.1376 25.6249 19.5516 25.6249H13.3718C13.1054 25.6249 12.9989 25.465 12.9989 25.2519C12.9989 25.0388 13.1054 24.879 13.3718 24.879H20.7769C21.3097 24.879 21.6293 24.5594 21.6293 24.0799C21.6293 23.6004 21.3097 23.2808 20.7769 23.2808H13.3718C13.1054 23.2808 12.9989 23.121 12.9989 22.9079C12.9989 22.6948 13.1054 22.535 13.3718 22.535H19.5516C20.0844 22.535 20.404 22.2153 20.404 21.7358C20.404 21.2564 20.0844 20.9367 19.5516 20.9367H11.4539C11.1876 20.9367 11.081 20.7769 11.081 20.5638C11.081 20.3507 11.1876 20.1909 11.4539 20.1909H14.384C14.9168 20.1909 15.2364 19.8713 15.2364 19.3918C15.2364 18.9123 14.9168 18.5927 14.384 18.5927H8.20422C5.16759 18.5927 2.93008 20.6704 2.93008 23.9201V24.3996C2.93008 27.5427 5.11431 29.6204 8.20422 29.6204H16.7281V29.5671ZM19.0721 17.6337C19.5516 17.6337 19.9245 17.3141 19.9245 16.7281V12.4129C19.9245 12.1465 20.0844 12.04 20.2975 12.04C20.5105 12.04 20.6704 12.1465 20.6704 12.4129V19.6049C20.6704 20.1909 21.0433 20.4573 21.5228 20.4573C22.0022 20.4573 22.3751 20.1909 22.3751 19.6049V13.3718C22.3751 13.1054 22.535 12.9989 22.7481 12.9989C22.9612 12.9989 23.121 13.1054 23.121 13.3718V20.7769C23.121 21.3629 23.4939 21.6293 23.9734 21.6293C24.4528 21.6293 24.8258 21.4162 24.8258 20.7769V13.3718C24.8258 13.1054 24.9856 12.9989 25.1987 12.9989C25.4118 12.9989 25.5716 13.1054 25.5716 13.3718V19.6049C25.5716 20.1909 25.9445 20.4573 26.424 20.4573C26.9034 20.4573 27.2764 20.1909 27.2764 19.6049V11.4539C27.2764 11.1876 27.4362 11.081 27.6493 11.081C27.8624 11.081 28.0222 11.1876 28.0222 11.4539V14.4373C28.0222 15.0233 28.3951 15.2897 28.8746 15.2897C29.3541 15.2897 29.727 15.0233 29.727 14.4373V8.25749C29.727 5.16759 27.4895 2.98335 24.2397 2.98335H23.707C20.5105 2.98335 18.2198 5.11432 18.2198 8.25749V16.7281C18.2198 17.2608 18.5394 17.6337 19.0721 17.6337ZM31.2187 18.4861C30.6859 18.4861 30.3663 18.8058 30.3663 19.2852C30.3663 19.7647 30.6859 20.0844 31.2187 20.0844H35.5871C35.8002 20.0844 35.9068 20.2974 35.9068 20.4573C35.9068 20.6704 35.8002 20.8302 35.5871 20.8302H28.3951C27.8091 20.8302 27.5427 21.1498 27.5427 21.6293C27.5427 22.1088 27.8091 22.4284 28.3951 22.4284H34.5749C34.8413 22.4284 34.9478 22.5882 34.9478 22.8013C34.9478 23.0144 34.8413 23.1743 34.5749 23.1743H27.1698C26.6371 23.1743 26.3174 23.4939 26.3174 23.9734C26.3174 24.4528 26.6371 24.7725 27.1698 24.7725H34.5749C34.8413 24.7725 34.9478 24.9323 34.9478 25.1454C34.9478 25.3585 34.8413 25.5183 34.5749 25.5183H28.3951C27.8624 25.5183 27.5427 25.838 27.5427 26.3174C27.5427 26.7969 27.8624 27.1165 28.3951 27.1165H36.4928C36.7592 27.1165 36.8657 27.2764 36.8657 27.4895C36.8657 27.7026 36.7592 27.8624 36.4928 27.8624H33.5627C33.03 27.8624 32.7103 28.182 32.7103 28.6615C32.7103 29.141 33.03 29.4606 33.5627 29.4606H39.7425C42.7791 29.4606 45.0167 27.3829 45.0167 24.1332V23.6537C45.0167 20.5105 42.8324 18.4329 39.7425 18.4329H31.2187V18.4861Z" fill="#FF384B"/>
            <path d="M78.3311 16.6217C78.4376 14.9702 78.5442 11.7737 78.5442 9.53619H84.724V20.4574H88.2933V6.44629H75.1346C75.0813 9.74929 75.1879 13.1056 75.0813 15.1832C74.8682 16.9946 74.229 17.2077 73.1102 17.2077H72.2578V20.5107H73.7495C76.8394 20.6172 78.118 19.2321 78.3311 16.6217Z" fill="#FF384B"/>
            <path d="M66.8524 34.4681C67.7581 34.0951 68.4507 32.9231 68.4507 31.4847C68.4507 28.9808 66.7992 27.5957 63.2831 27.5957H54.333V41.6068H63.2831C66.7459 41.6068 68.5039 40.0618 68.5039 37.2383C68.5039 36.013 67.8646 34.7877 66.8524 34.4681ZM57.8491 30.5791H63.3896C64.5616 30.5791 64.9878 31.1651 64.9878 31.8576C64.9878 32.71 64.5616 33.2428 63.4429 33.2428H57.7958V30.5791H57.8491ZM63.4429 38.5702H57.7426V35.7466H63.4429C64.6149 35.7466 65.0944 36.2794 65.0944 37.0785C65.0944 37.8776 64.5616 38.5702 63.4429 38.5702Z" fill="#FF384B"/>
            <path d="M106.033 15.6094C106.033 12.9457 104.382 11.1344 100.546 11.1344H95.5381V6.44629H91.9688V20.4574H100.706C104.488 20.4574 106.033 18.3797 106.033 15.6094ZM95.5381 17.4208V14.2243H100.386C101.771 14.2243 102.41 14.8103 102.41 15.716C102.41 16.7282 101.824 17.4208 100.439 17.4208H95.5381Z" fill="#FF384B"/>
            <path d="M138.871 23.7596C138.871 26.0504 140.15 27.1692 143.985 27.1692C147.821 27.1692 149.153 25.9439 149.153 23.7596V23.3867H145.903C145.903 24.3989 145.317 24.7718 143.932 24.7718C142.654 24.7718 142.227 24.3457 142.227 23.3867H138.924V23.7596H138.871Z" fill="#FF384B"/>
            <path d="M129.764 14.7566H137.382V20.4569H140.952V6.4458H137.382V11.6667H129.711V6.4458H126.142V20.4569H129.764V14.7566Z" fill="#FF384B"/>
            <path d="M92.1249 27.5957L85.1992 41.6068H88.9284L90.4201 38.6234H98.2514L99.7431 41.6068H103.579L96.6532 27.5957H92.1249ZM91.8585 35.6401L94.3091 30.6856L96.7597 35.6401H91.8585Z" fill="#FF384B"/>
            <path d="M139.802 36.9187V27.5957H136.339V41.6068H139.855L148.166 32.2838V41.6068H151.629V27.5957H148.22L139.802 36.9187Z" fill="#FF384B"/>
            <path d="M59.992 6.4458L53.0664 20.4569H56.7956L58.2873 17.4735H66.0653L67.557 20.4569H71.3927L64.4671 6.4458H59.992ZM59.7257 14.5435L62.1763 9.58897L64.6269 14.5435H59.7257Z" fill="#FF384B"/>
            <path d="M152.988 17.4203H150.857C148.407 17.4203 147.395 15.9287 147.395 13.5313C147.395 10.9209 148.354 9.58903 150.804 9.58903H152.935C155.173 9.58903 155.759 10.4414 156.025 11.8265H159.861C159.754 8.2039 157.996 6.39258 153.255 6.39258H150.431C145.637 6.39258 143.719 9.05629 143.719 13.5313C143.719 18.3793 145.583 20.6168 150.378 20.6168H153.255C157.943 20.6168 159.594 18.8055 159.861 15.2894H156.025C155.705 16.6212 155.119 17.4203 152.988 17.4203Z" fill="#FF384B"/>
            <path d="M124.332 35.9065H132.856V33.0829H124.226V30.6323H133.122V27.5957H120.656V41.6068H133.282V38.5169H124.332V35.9065Z" fill="#FF384B"/>
            <path d="M80.5857 27.5957H71.7422V41.6068H75.3115V36.9187H80.5324C84.1018 36.9187 85.9131 35.0008 85.9131 32.0707C85.9131 29.1406 84.1551 27.5957 80.5857 27.5957ZM80.2661 33.8288H75.3648V30.6323H80.2128C81.7577 30.6323 82.397 31.1651 82.397 32.1773C82.3437 33.1895 81.7045 33.8288 80.2661 33.8288Z" fill="#FF384B"/>
            <path d="M113.364 33.4026H109.155C107.131 33.4026 106.491 32.8698 106.491 30.7922V27.5957H102.922V31.6445C102.922 35.3737 104.52 36.5458 108.409 36.5458H113.47V41.6068H117.04V27.5957H113.417V33.4026H113.364Z" fill="#FF384B"/>
            <path d="M122.462 20.4574V6.44629H113.618C109.836 6.44629 107.971 8.31088 107.971 11.241C107.971 13.7448 109.197 14.9169 110.635 15.3963L107.918 20.4574H111.86L114.204 15.8758H118.786V20.4574H122.462ZM113.831 12.8392C112.446 12.8392 111.647 12.3064 111.647 11.1877C111.647 10.1222 112.393 9.53619 113.831 9.53619H118.892V12.8392H113.831Z" fill="#FF384B"/>
    </symbol>

    <symbol id="odnoklassniki">
            <rect y="0.00146484" width="32" height="32" fill="#EB8137"/>
            <path fill-rule="evenodd" clip-rule="evenodd" d="M15.18 19.7373C13.8892 19.6065 12.725 19.299 11.7283 18.5448C11.605 18.4507 11.4775 18.3607 11.3642 18.2557C10.9283 17.8507 10.8842 17.3857 11.2292 16.9073C11.525 16.4982 12.0208 16.3882 12.5358 16.624C12.6358 16.669 12.73 16.7265 12.8217 16.7873C14.6792 18.0223 17.23 18.0565 19.095 16.8423C19.2792 16.7057 19.4767 16.594 19.7058 16.5365C20.1508 16.4265 20.5658 16.5848 20.8042 16.9615C21.0775 17.3915 21.0733 17.8115 20.7375 18.1448C20.2217 18.6573 19.6017 19.0282 18.9125 19.2865C18.2617 19.5307 17.5483 19.6532 16.8417 19.7357C16.9483 19.8482 16.9983 19.9023 17.065 19.9682C18.0233 20.8998 18.9875 21.829 19.9433 22.764C20.2683 23.0823 20.3367 23.4773 20.1575 23.8482C19.9617 24.2532 19.5225 24.5198 19.0925 24.4915C18.8192 24.4732 18.6067 24.3415 18.4175 24.1582C17.6942 23.4532 16.9575 22.7615 16.2483 22.0432C16.0417 21.8348 15.9425 21.874 15.7608 22.0557C15.0325 22.7807 14.2925 23.4948 13.5483 24.2048C13.215 24.524 12.8167 24.5807 12.4292 24.399C12.0167 24.2057 11.7542 23.799 11.775 23.3898C11.7892 23.1132 11.93 22.9015 12.1258 22.7123C13.075 21.7957 14.0217 20.8757 14.9675 19.9573C15.0308 19.8965 15.0892 19.8315 15.18 19.7373Z" fill="white"/>
            <path fill-rule="evenodd" clip-rule="evenodd" d="M15.9709 16.5015C13.7817 16.494 11.9876 14.6823 12.0001 12.4931C12.0045 11.4312 12.4301 10.4145 13.1835 9.66606C13.9369 8.91767 14.9565 8.49882 16.0184 8.50148C18.2334 8.50731 20.0109 10.3165 20.0001 12.5531C19.9884 14.7381 18.1817 16.509 15.9709 16.5015ZM17.9601 12.4981C17.9605 12.2412 17.9101 11.9866 17.8119 11.7492C17.7136 11.5117 17.5694 11.296 17.3875 11.1145C17.2055 10.9329 16.9895 10.7892 16.7519 10.6914C16.5142 10.5936 16.2596 10.5438 16.0026 10.5448C15.7434 10.5437 15.4866 10.5942 15.2472 10.6933C15.0077 10.7924 14.7904 10.9382 14.6079 11.1222C14.4254 11.3062 14.2813 11.5247 14.1841 11.7649C14.0869 12.0052 14.0385 12.2623 14.0417 12.5215C14.0433 12.7784 14.0955 13.0325 14.1956 13.2692C14.2956 13.5058 14.4414 13.7204 14.6246 13.9005C14.8079 14.0806 15.0249 14.2228 15.2632 14.3187C15.5015 14.4147 15.7565 14.4627 16.0134 14.4598C16.2703 14.4599 16.5248 14.4092 16.762 14.3104C16.9992 14.2117 17.2145 14.067 17.3955 13.8846C17.5765 13.7022 17.7195 13.4858 17.8164 13.2478C17.9133 13.0099 17.9622 12.7551 17.9601 12.4981Z" fill="white"/>
    </symbol>
<symbol id="facebook">
    <rect y="0.00341797" width="32" height="32" fill="#2759B4"/>
    <path d="M17.242 24.3367V17.1143H19.6989L20.0668 14.2997H17.242V12.5026C17.242 11.6877 17.4714 11.1323 18.6558 11.1323L20.1663 11.1316V8.61421C19.905 8.58003 19.0084 8.50342 17.9652 8.50342C15.7873 8.50342 14.2963 9.81506 14.2963 12.224V14.2997H11.833V17.1144H14.2962V24.3368L17.242 24.3367Z" fill="white"/>
</symbol>

    <symbol id="twitter">
            <rect width="32" height="32" fill="#29A3EF"/>
            <path d="M24.3337 11.6882C23.7202 11.9464 23.062 12.1215 22.3705 12.1997C23.0766 11.798 23.6171 11.1608 23.8733 10.404C23.2109 10.776 22.4798 11.0461 21.7008 11.1925C21.077 10.5603 20.1896 10.1665 19.2054 10.1665C17.3172 10.1665 15.7863 11.6209 15.7863 13.4137C15.7863 13.668 15.8165 13.9163 15.8748 14.1538C13.0337 14.0182 10.5144 12.7251 8.82821 10.7601C8.53347 11.239 8.3658 11.797 8.3658 12.3926C8.3658 13.5196 8.96985 14.5139 9.88636 15.0957C9.32604 15.0779 8.79905 14.9314 8.33769 14.688V14.7286C8.33769 16.3017 9.51664 17.6147 11.0799 17.9135C10.7935 17.9867 10.4915 18.0273 10.179 18.0273C9.95823 18.0273 9.74472 18.0065 9.53538 17.9669C9.9707 19.2581 11.233 20.197 12.7285 20.2228C11.559 21.0934 10.0842 21.6109 8.48246 21.6109C8.20648 21.6109 7.93464 21.5951 7.66699 21.5664C9.18026 22.4895 10.9768 23.0277 12.9077 23.0277C19.1971 23.0277 22.635 18.0787 22.635 13.7867L22.6236 13.3662C23.2953 12.9111 23.8764 12.3392 24.3337 11.6882Z" fill="white"/>
    </symbol>


    <symbol id="youtube">
        <path d="M0 0.00292969H32V32.0029H0V0.00292969Z" fill="#E02F2F"/>
        <path d="M24.8199 12.024C24.8199 12.024 24.6444 10.6514 24.1048 10.0471C23.42 9.25493 22.6531 9.25026 22.3014 9.20535C19.7823 9.00293 16.0039 9.00293 16.0039 9.00293H15.9955C15.9955 9.00293 12.2171 9.00293 9.69859 9.20535C9.34692 9.25026 8.58056 9.25493 7.89522 10.0471C7.35617 10.6514 7.18006 12.024 7.18006 12.024C7.18006 12.024 7 13.6346 7 15.2452V16.7549C7 18.3666 7.18006 19.9766 7.18006 19.9766C7.18006 19.9766 7.35561 21.3486 7.89522 21.9518C8.58056 22.744 9.47915 22.72 9.87978 22.8029C11.3197 22.9557 16 23.003 16 23.003C16 23.003 19.7823 22.996 22.3014 22.7959C22.6531 22.7492 23.42 22.7445 24.1048 21.9524C24.6438 21.3492 24.8199 19.9772 24.8199 19.9772C24.8199 19.9772 25 18.3666 25 16.7554V15.2458C25 13.6346 24.8199 12.024 24.8199 12.024Z" fill="white"/>
        <path d="M13.75 12.5029V19.5029L19.3767 16.0029L13.75 12.5029Z" fill="#E02F2F"/>
    </symbol>

    <symbol id="vk">
            <rect y="0.00390625" width="32" height="32" fill="#366AA6"/>
            <path d="M24.2402 20.3334C24.222 20.2964 24.202 20.2602 24.1802 20.2249C23.8769 19.7048 23.2969 19.0667 22.4402 18.3091L22.4219 18.2917L22.4135 18.2838L22.4044 18.2743H22.3944C22.006 17.922 21.7602 17.6853 21.6569 17.5634C21.4685 17.3322 21.426 17.0987 21.5294 16.8612C21.6019 16.6822 21.8752 16.3038 22.3494 15.7259C22.5985 15.4195 22.7952 15.1741 22.941 14.9897C23.9919 13.6597 24.4477 12.8102 24.3077 12.4405L24.2535 12.3534C24.2177 12.3019 24.1235 12.2537 23.9719 12.2109C23.8194 12.1674 23.6252 12.1602 23.3885 12.1887L20.7635 12.2062C20.7036 12.192 20.6408 12.1937 20.5819 12.2109L20.4635 12.237L20.4177 12.2584L20.3819 12.2845C20.3433 12.3092 20.3094 12.34 20.2819 12.3756C20.2436 12.4214 20.2127 12.4724 20.1902 12.5268C19.9179 13.1996 19.592 13.8517 19.2152 14.4774C18.9902 14.8361 18.7844 15.1464 18.5952 15.41C18.4544 15.6154 18.2961 15.8095 18.1219 15.9903C18.0139 16.0977 17.8981 16.1977 17.7752 16.2896C17.6727 16.3648 17.5935 16.3964 17.5385 16.3846C17.4867 16.3738 17.4351 16.3625 17.3835 16.3505C17.2973 16.2972 17.2267 16.2239 17.1785 16.1376C17.1219 16.032 17.0866 15.9174 17.0744 15.7995C17.0577 15.6832 17.0468 15.5661 17.0419 15.4488C17.0393 15.31 17.041 15.1711 17.0469 15.0324C17.0527 14.8535 17.0552 14.7316 17.0552 14.6682C17.0552 14.4489 17.0602 14.2099 17.0694 13.9534L17.0919 13.3422C17.0985 13.1918 17.101 13.0327 17.101 12.8648C17.1044 12.7327 17.0937 12.6007 17.0694 12.4706C17.0481 12.3752 17.0159 12.2823 16.9735 12.1935C16.9346 12.1079 16.8696 12.0354 16.7869 11.9853C16.6923 11.9313 16.5894 11.8917 16.4819 11.8681C16.1602 11.7984 15.7502 11.7612 15.2519 11.7557C14.1219 11.7438 13.396 11.8135 13.0744 11.9631C12.9431 12.0292 12.8257 12.1175 12.7277 12.2236C12.6194 12.3502 12.6027 12.4199 12.6827 12.4318C13.0469 12.4832 13.3052 12.6075 13.4569 12.8039L13.5119 12.9084C13.5535 12.9836 13.5969 13.1166 13.6394 13.3074C13.681 13.4974 13.7094 13.7087 13.721 13.9399C13.751 14.3619 13.751 14.7237 13.721 15.0237C13.691 15.3245 13.6627 15.5581 13.6344 15.7259C13.6154 15.8669 13.5741 16.0044 13.5119 16.1336C13.4794 16.1991 13.4427 16.2625 13.4019 16.3236C13.3902 16.3409 13.3749 16.3557 13.3569 16.3672C13.2782 16.396 13.1945 16.4108 13.1102 16.4107C13.0252 16.4107 12.9219 16.3703 12.801 16.2896C12.6615 16.1928 12.5345 16.0807 12.4227 15.9555C12.2587 15.7693 12.111 15.5707 11.981 15.3617C11.7953 15.0693 11.6248 14.7684 11.4702 14.46L11.3244 14.2083C11.2335 14.0468 11.1094 13.8109 10.951 13.5021C10.7927 13.1934 10.6535 12.8933 10.5319 12.6044C10.491 12.4928 10.4147 12.396 10.3135 12.3273L10.2677 12.3012C10.2227 12.2706 10.1737 12.2458 10.1219 12.2275C10.0546 12.2014 9.98442 12.1825 9.9127 12.1713L7.41603 12.1887C7.16103 12.1887 6.9877 12.2442 6.89686 12.3534L6.8602 12.4057C6.83879 12.4489 6.82932 12.4965 6.8327 12.5442C6.8327 12.6075 6.85103 12.6859 6.8877 12.7777C7.25186 13.5932 7.64853 14.3793 8.07603 15.1361C8.50436 15.8929 8.87603 16.5033 9.1927 16.9649C9.49725 17.4125 9.81913 17.8493 10.1577 18.2743C10.4852 18.6844 10.7027 18.9472 10.8085 19.0636C10.9152 19.1792 10.9985 19.2654 11.0594 19.3232L11.2877 19.5314C11.4335 19.67 11.6469 19.8362 11.9294 20.0302C12.2127 20.2234 12.5252 20.4142 12.8685 20.6026C13.2119 20.7902 13.6102 20.943 14.066 21.0617C14.5219 21.1805 14.966 21.228 15.3969 21.2042H16.4444C16.6569 21.1876 16.8177 21.1235 16.9277 21.0142L16.9635 20.9707C16.9947 20.9207 17.0177 20.8665 17.0319 20.81C17.0535 20.7387 17.0635 20.6588 17.0635 20.5725C17.0552 20.3467 17.0751 20.1209 17.1227 19.8996C17.1685 19.7009 17.2202 19.5504 17.2785 19.4491C17.3627 19.298 17.4824 19.1674 17.6285 19.0675C17.6523 19.056 17.6768 19.0459 17.7019 19.0374C17.8477 18.9915 18.0185 19.0359 18.2169 19.172C18.4144 19.3082 18.5994 19.4752 18.7727 19.6747C18.946 19.8742 19.1535 20.0983 19.3969 20.3469C19.6394 20.5954 19.8519 20.7799 20.0344 20.901L20.2169 21.0055C20.3385 21.0752 20.496 21.1385 20.6902 21.1963C20.8844 21.2541 21.0544 21.2684 21.201 21.2399L23.5335 21.205C23.7635 21.205 23.9435 21.1686 24.071 21.0966C24.1985 21.0245 24.2744 20.9446 24.2985 20.8583C24.3229 20.7614 24.3243 20.6605 24.3027 20.563C24.2905 20.4845 24.2701 20.4075 24.2402 20.3334Z" fill="white"/>
    </symbol>

<symbol id="mail" fill="none">
        <rect x="3" y="5" width="18" height="14" stroke="#FF384B" stroke-width="2"/>
        <path fill-rule="evenodd" clip-rule="evenodd" d="M2.32812 5.74318L3.66605 4.25659L11.9971 11.6545L20.3281 4.25659L21.6661 5.74318L11.9971 14.3452L2.32812 5.74318Z" fill="#FF384B"/>

</symbol>

    <symbol id="tel" fill="none">
        <path d="M5.9029 3.75108L6.63935 4.42757L5.9029 3.75108ZM7.72266 1.77002L8.42976 1.06291L7.69201 0.32516L6.9862 1.09353L7.72266 1.77002ZM6.09268 12.0663L5.38786 12.7757L6.09268 12.0663ZM9.37838 15.3309L10.0877 14.626L10.0832 14.6215L9.37838 15.3309ZM12.9665 18.9414L13.6758 18.2365L12.9665 18.9414ZM21.2452 19.1635L20.5748 18.4215L21.2452 19.1635ZM23.2773 17.327L23.9478 18.0689L24.7282 17.3637L23.9845 16.6199L23.2773 17.327ZM18.3276 12.3773L19.0347 11.6702L18.3276 10.9631L17.6205 11.6702L18.3276 12.3773ZM15.4992 15.2057L14.7921 15.9128L15.4992 16.6199L16.2063 15.9128L15.4992 15.2057ZM13.3784 13.0849L12.6712 12.3778L11.9641 13.0849L12.6712 13.792L13.3784 13.0849ZM13.3795 13.0837L14.0866 13.7908L14.7937 13.0837L14.0866 12.3766L13.3795 13.0837ZM9.84398 9.54819L9.13687 8.84109L8.42976 9.54819L9.13687 10.2553L9.84398 9.54819ZM12.6724 6.71977L13.3795 7.42687L14.0866 6.71977L13.3795 6.01266L12.6724 6.71977ZM6.63935 4.42757L8.45911 2.44651L6.9862 1.09353L5.16645 3.07459L6.63935 4.42757ZM6.7975 11.3569C4.89266 9.46433 4.82284 6.4051 6.63935 4.42757L5.16645 3.07459C2.62333 5.84313 2.72108 10.1261 5.38786 12.7757L6.7975 11.3569ZM10.0832 14.6215L6.7975 11.3569L5.38786 12.7757L8.67355 16.0403L10.0832 14.6215ZM8.66908 16.0358L12.2573 19.6463L13.6758 18.2365L10.0877 14.626L8.66908 16.0358ZM12.2573 19.6463C14.8915 22.2969 19.1432 22.411 21.9157 19.9054L20.5748 18.4215C18.5944 20.2112 15.5574 20.1298 13.6758 18.2365L12.2573 19.6463ZM21.9157 19.9054L23.9478 18.0689L22.6069 16.5851L20.5748 18.4215L21.9157 19.9054ZM23.9845 16.6199L19.0347 11.6702L17.6205 13.0844L22.5702 18.0341L23.9845 16.6199ZM17.6205 11.6702L14.7921 14.4986L16.2063 15.9128L19.0347 13.0844L17.6205 11.6702ZM16.2063 14.4986L14.0855 12.3778L12.6712 13.792L14.7921 15.9128L16.2063 14.4986ZM12.6724 12.3766L12.6712 12.3778L14.0855 13.792L14.0866 13.7908L12.6724 12.3766ZM9.13687 10.2553L12.6724 13.7908L14.0866 12.3766L10.5511 8.84109L9.13687 10.2553ZM11.9653 6.01266L9.13687 8.84109L10.5511 10.2553L13.3795 7.42687L11.9653 6.01266ZM7.01555 2.47713L11.9653 7.42687L13.3795 6.01266L8.42976 1.06291L7.01555 2.47713Z" fill="#FF384B"/>
    </symbol>

    <symbol id="arrow-down" fill="none">
        <path d="M14.001 7.93799L8.00098 13.9844L2.00098 7.93799" stroke="#FF384B" stroke-width="2"/>
        <path d="M8.00098 13.9844L8.00098 1.8916" stroke="#FF384B" stroke-width="2"/>
    </symbol>

    <symbol id="arrow-up" fill="none">
        <path d="M2 8.0625L8 2.01611L14 8.0625" stroke="#FF384B" stroke-width="2"/>
        <path d="M8 2.01611L8 14.1089" stroke="#FF384B" stroke-width="2"/>
    </symbol>

    <symbol id="link-white" fill="none">
        <path d="M9 10.25L12 8.5L15 6.75M9 13.75L12 15.5L15 17.25" stroke="white" stroke-width="2"/>
        <circle cx="6" cy="12" r="3" stroke="white" stroke-width="2"/>
        <circle cx="18" cy="5" r="3" stroke="white" stroke-width="2"/>
        <circle cx="18" cy="19" r="3" stroke="white" stroke-width="2"/>
    </symbol>

</svg>
